<svg width="105" height="103" viewBox="0 0 105 103" fill="none" xmlns="http://www.w3.org/2000/svg">
<circle cx="55" cy="47" r="40" fill="#E5F9F7"/>
<circle cx="93.25" cy="11.25" r="10.25" fill="#FEFBDC" stroke="black" stroke-width="2"/>
<path d="M58.6622 58.2777L69.5898 54.2949L64.7703 51.6174L63.1638 55.9014" stroke="black" stroke-width="2" stroke-linecap="round" stroke-linejoin="round"/>
<path d="M66.3768 65.5404L67.3504 65.0942C67.1501 64.6571 66.683 64.4071 66.2081 64.4828L66.3768 65.5404ZM72.2673 78.3925L71.2937 78.8387C71.5285 79.351 72.12 79.5937 72.6469 79.394L72.2673 78.3925ZM78.6289 77.1265C79.182 76.9169 79.4604 76.2986 79.2508 75.7455C79.0411 75.1924 78.4228 74.9139 77.8697 75.1236L78.6289 77.1265ZM46.7305 62.7625L47.1765 61.7888C46.8933 61.659 46.5675 61.6591 46.2843 61.7889L46.7305 62.7625ZM56.3026 67.1469L55.8566 68.1207C56.0488 68.2087 56.2626 68.2379 56.4713 68.2046L56.3026 67.1469ZM46.1839 61.8349L45.2103 62.2812L46.1028 64.2284L47.0764 63.7821L46.1839 61.8349ZM65.4032 65.9867L71.2937 78.8387L73.2409 77.9463L67.3504 65.0942L65.4032 65.9867ZM72.6469 79.394L78.6289 77.1265L77.8697 75.1236L71.8877 77.391L72.6469 79.394ZM66.2081 64.4828L56.134 66.0893L56.4713 68.2046L66.5454 66.5981L66.2081 64.4828ZM56.7487 66.1732L47.1765 61.7888L46.2845 63.7362L55.8566 68.1207L56.7487 66.1732ZM46.2843 61.7889L46.1839 61.8349L47.0764 63.7821L47.1768 63.7361L46.2843 61.7889Z" fill="black"/>
<path d="M54.8129 49.2815L58.3443 43.5849L56.2022 41.4428" stroke="black" stroke-width="2.14201" stroke-linecap="round" stroke-linejoin="round"/>
<path d="M18.1416 30.7195L12.9803 32.4369C12.4216 32.6221 12.0171 33.1086 11.9346 33.6922L10.2719 45.3128L8.27489 44.3128C7.68039 44.0155 6.96225 44.1287 6.48758 44.5924L2.11649 50.5463" stroke="black" stroke-width="2.14201" stroke-linejoin="round"/>
<path fill-rule="evenodd" clip-rule="evenodd" d="M36.6068 15.4083C39.4268 14.8241 42.3484 14.5171 45.3416 14.5171C57.961 14.5171 69.3062 19.9738 77.1464 28.6563C77.8419 28.3209 78.5912 28.079 79.3779 27.9468C71.1295 18.4096 58.9401 12.3751 45.3416 12.3751C42.3352 12.3751 39.3976 12.67 36.5563 13.2326C36.6223 13.6561 36.6565 14.0901 36.6565 14.5322C36.6565 14.8228 36.6392 15.1152 36.6068 15.4083ZM21.1957 19.3985C8.66839 27.384 0.359375 41.4005 0.359375 57.3573C0.359375 82.1999 20.499 102.34 45.3416 102.34C70.1842 102.34 90.3238 82.1999 90.3238 57.3573C90.3238 51.8672 89.3402 46.6068 87.5396 41.7427C87.2688 42.2739 86.9842 42.7799 86.7037 43.2505C86.5128 43.5706 86.3173 43.8846 86.1202 44.1904C87.4587 48.3388 88.1818 52.7636 88.1818 57.3573C88.1818 81.0169 69.0012 100.198 45.3416 100.198C21.682 100.198 2.50138 81.0169 2.50138 57.3573C2.50138 42.224 10.3486 28.9231 22.1958 21.3019C21.8522 20.7108 21.5081 20.0702 21.1957 19.3985Z" fill="black"/>
<path d="M43.9718 60.9218L46.5632 58.3112L51.9182 56.5708L56.0684 62.1935L58.5451 58.3112L60.3524 59.583L63.1638 65.9421" stroke="black" stroke-width="2" stroke-linejoin="round"/>
<path d="M63.6056 97.4204L73.8471 80.5521L81.3709 73.1044V67.1469L75.9489 64.5364L82.4419 59.6499L89.1356 64.0009" stroke="black" stroke-width="2" stroke-linejoin="round"/>
<path d="M38.7167 40.86L38.7167 40.86L38.7197 40.859C38.8471 40.816 38.9768 40.8016 39.1006 40.8112C39.4774 40.8405 39.8151 41.0912 39.9407 41.4676C39.9408 41.4677 39.9408 41.4678 39.9408 41.4679L41.9043 47.3645L41.9049 47.3663C42.0024 47.6573 41.9539 47.9819 41.7704 48.2374L41.7695 48.2386C41.5893 48.4903 41.3005 48.6384 40.9898 48.6384H37.0565C36.6689 48.6384 36.316 48.4036 36.1652 48.0417C36.0162 47.6824 36.0979 47.2674 36.3751 46.9891C36.3752 46.989 36.3754 46.9888 36.3755 46.9887L38.3411 45.0231L38.3412 45.023C38.3775 44.9867 38.3887 44.977 38.3934 44.9732L38.9242 44.5371L38.7077 43.8852L38.1089 42.0827L38.1084 42.0813C37.9389 41.5736 38.2116 41.0287 38.7167 40.86Z" stroke="black" stroke-width="2"/>
<path d="M69.5898 20.759L67.5147 26.3818L69.2551 30.1973L65.6405 33.8788L64.1678 36.0878L62.1597 33.8788H56.0684L47.7681 42.2461L55.2651 48.4713L54.7296 49.4754H50.1778L49.1738 50.0109L45.6261 49.1407L44.2873 51.4166L42.1453 51.9521L43.9526 54.6965L41.978 57.6752H37.9617" stroke="black" stroke-width="2" stroke-linecap="round" stroke-linejoin="round"/>
<path d="M33.3248 74.6094L32.0377 75.4472L34.2466 83.5467L40.338 85.8895L46.1616 83.8814L51.4497 87.4291L51.7843 95.2608L56.7377 99.9465" stroke="black" stroke-width="2" stroke-linejoin="round"/>
<path d="M17.9808 31.4022L17.0262 31.104C16.9759 31.2653 16.9672 31.4366 17.0009 31.6021L17.9808 31.4022ZM18.6501 34.6821L17.6703 34.8821C17.733 35.1889 17.9357 35.4487 18.2182 35.584C18.5007 35.7193 18.8302 35.7144 19.1085 35.5709L18.6501 34.6821ZM25.0092 31.4022V30.4022C24.8497 30.4022 24.6926 30.4403 24.5508 30.5134L25.0092 31.4022ZM28.7577 31.4022V32.4022C29.1048 32.4022 29.427 32.2222 29.6091 31.9268L28.7577 31.4022ZM33.1568 26.1702C33.4465 25.7 33.3003 25.0839 32.8301 24.7942C32.3599 24.5044 31.7439 24.6507 31.4541 25.1209L33.1568 26.1702ZM20.2801 20.6863L17.0262 31.104L18.9353 31.7003L22.1892 21.2826L20.2801 20.6863ZM17.0009 31.6021L17.6703 34.8821L19.6299 34.4822L18.9606 31.2022L17.0009 31.6021ZM19.1085 35.5709L25.4676 32.2909L24.5508 30.5134L18.1917 33.7934L19.1085 35.5709ZM25.0092 32.4022H28.7577V30.4022H25.0092V32.4022ZM29.6091 31.9268L33.1568 26.1702L31.4541 25.1209L27.9064 30.8775L29.6091 31.9268Z" fill="black"/>
<path d="M33.3301 66.7357C33.3301 63.9388 35.5911 61.6778 38.3879 61.6778C41.1847 61.6778 43.4457 63.9388 43.4457 66.7357C43.4457 68.2504 42.6178 70.1956 41.4785 72.1061C40.4146 73.8903 39.1711 75.4958 38.3919 76.4468C37.6099 75.4972 36.3637 73.8909 35.2982 72.1057C34.158 70.1955 33.3301 68.2504 33.3301 66.7357Z" fill="#E5F9F7" stroke="black" stroke-width="2"/>
<circle cx="38.3879" cy="66.4376" r="1.5" fill="black"/>
<path d="M75.7227 36.1908C75.7227 33.3962 77.9819 31.1371 80.7764 31.1371C83.571 31.1371 85.8302 33.3962 85.8302 36.1908C85.8302 37.7044 85.0029 39.6481 83.8644 41.5574C82.8015 43.3399 81.5592 44.9441 80.7805 45.8945C79.999 44.9455 78.7539 43.3406 77.6894 41.557C76.55 39.648 75.7227 37.7043 75.7227 36.1908Z" fill="#E5F9F7" stroke="black" stroke-width="2"/>
<circle cx="80.7765" cy="36.297" r="1.5" fill="black"/>
<circle cx="28.2951" cy="14.4376" r="1.5" fill="black"/>
<path d="M23.2402 14.532C23.2402 11.7368 25.4999 9.47714 28.2951 9.47714C31.0903 9.47714 33.3499 11.7368 33.3499 14.532C33.3499 16.0459 32.5224 17.99 31.3837 19.8995C30.3205 21.6825 29.0779 23.287 28.2991 24.2376C27.5175 23.2884 26.2721 21.6832 25.2073 19.8992C24.0677 17.9899 23.2402 16.0458 23.2402 14.532Z" stroke="black" stroke-width="2"/>
</svg>
