<?xml version="1.0" encoding="utf-8"?>
<!-- Generator: Adobe Illustrator 16.0.4, SVG Export Plug-In . SVG Version: 6.00 Build 0)  -->
<!DOCTYPE svg PUBLIC "-//W3C//DTD SVG 1.1//EN" "http://www.w3.org/Graphics/SVG/1.1/DTD/svg11.dtd">
<svg version="1.1" id="Warstwa_1" xmlns="http://www.w3.org/2000/svg" xmlns:xlink="http://www.w3.org/1999/xlink" x="0px" y="0px"
	 width="100px" height="112.001px" viewBox="0 -2 100 112.001" enable-background="new 0 -2 100 112.001" xml:space="preserve">
<g>
	<circle id="Mask" fill="#E5F9F7" cx="50" cy="60" r="40"/>
	<circle fill="#FEFBDC" cx="19.157" cy="48.019" r="10.29"/>
	<circle fill="none" stroke="#000000" stroke-width="2" cx="19.157" cy="48.019" r="9.29"/>
	<path id="Path-12" fill="none" stroke="#000000" stroke-width="2" d="M0.5,94h98.577"/>
	<path id="Path-12_1_" fill="none" stroke="#000000" stroke-width="2" d="M0.5,102h98.577"/>
	<path id="Path-12_2_" fill="none" stroke="#000000" stroke-width="2" d="M0.5,109h98.577"/>
	<path id="Path-2" fill="none" stroke="#000000" stroke-width="2" d="M36.948,93.635l2.047-46.486l-2.729,0.344l0.341-23.759
		l-7.847-6.542c0,0,30.704-5.509,32.41-1.033c1.705,4.477,1.818,7.092,2.388,19.627c0.569,12.536-0.341,25.481-0.341,25.481
		l-2.389-1.033c0,0,0.599,8.458,1.023,16.872c0.426,8.415,0.683,16.873,0.683,16.873"/>
	<path id="Path-3" fill="none" stroke="#000000" stroke-width="2" d="M39.05,58.994L62.373,69.97"/>
	<path id="Path-4" fill="none" stroke="#000000" stroke-width="2" d="M62.373,61.052l-6.859-2.743c0,0,1.443-31.212,0-34.299
		c2.707-2.401,6.137-6.174,5.776-7.546"/>
	<path id="Path-5" fill="none" stroke="#000000" stroke-width="2" d="M36.306,24.071c0,0,5.736,3.461,10.819,3.366
		c5.084-0.096,9.074-4.114,9.074-4.114"/>
	<path id="Path-6" fill="none" stroke="#000000" stroke-width="2" d="M30.475,17.851l-19.55-0.701c0,0,8.575,12.973,12.004,12.973
		c3.43,0,6.517-0.351,6.517-0.351l6.859,3.155"/>
	<path id="Path-6_1_" fill="none" stroke="#000000" stroke-width="2" d="M61.033,15.777c0,0-1.037,2.049,8.565,2.401
		c9.603,0.352,19.527-0.686,19.527-0.686s-8.564,12.691-11.991,12.691c-3.426,0-6.508-0.343-6.508-0.343l-6.853,3.087"/>
	<path id="Path-7" fill="none" stroke="#000000" stroke-width="2" d="M40.422,28.811c0,0,3.875,15.777,6.34,21.265
		s6.693,11.662,6.693,11.662"/>
	<path id="Path-8" fill="none" stroke="#000000" stroke-width="2" d="M45.224,66.539l-1.372,24.695"/>
	<path id="Path-9" fill="none" stroke="#000000" stroke-width="2" d="M54.141,70.655l1.373,19.894"/>
	<path id="Path-10" fill="none" stroke="#000000" stroke-width="2" d="M12.684,19.09c-2.534-1.094-9.723-1.999-8.475-0.351
		c1.249,1.647,6.44,5.271,12.203,5.271"/>
	<path id="Path-10_1_" fill="none" stroke="#000000" stroke-width="2" d="M87.367,19.776c2.534-1.094,9.723-1.999,8.475-0.351
		c-1.249,1.647-6.441,5.271-12.203,5.271"/>
	<path id="Oval-2" fill="none" stroke="#000000" stroke-width="2" d="M51.055,13.72c2.463,0,4.459,0,4.459-6.86
		c0-3.789-1.996-6.86-4.459-6.86s-4.459,3.071-4.459,6.86C46.596,13.72,48.592,13.72,51.055,13.72z"/>
	<path id="Path-11" fill="none" stroke="#000000" stroke-width="2" d="M30.132,29.497c0,0-4.312-2.167-7.546-6.86"/>
	<path id="Path-11_1_" fill="none" stroke="#000000" stroke-width="2" d="M70.604,30.183c0,0,3.772-2.167,6.86-6.86"/>
</g>
</svg>
