
<svg width="120px" height="99px" viewBox="0 0 120 99" version="1.1" xmlns="http://www.w3.org/2000/svg" xmlns:xlink="http://www.w3.org/1999/xlink">
    <g stroke="none" stroke-width="1" fill="none" fill-rule="evenodd">
        <circle id="Mask" fill="#E5F9F7" cx="60" cy="40" r="40"></circle>
        <circle fill="#FEFBDC" cx="85.5" cy="19.25" r="11.25"></circle>
        <circle stroke="#000000" stroke-width="2" cx="85.5" cy="19.25" r="10.25"></circle>
        <path d="M0,83 L120,83" id="Path-12" stroke="#000000" stroke-width="2"></path>
        <path d="M10.5,38 L47.25,38" id="Path-12" stroke="#000000" stroke-width="2"></path>
        <path d="M10.5,53 L54,53" id="Path-12" stroke="#000000" stroke-width="2"></path>
        <path d="M10.5,68 L60,68" id="Path-12" stroke="#000000" stroke-width="2"></path>
        <path d="M0,91 L120,91" id="Path-12" stroke="#000000" stroke-width="2"></path>
        <path d="M0,98 L120,98" id="Path-12" stroke="#000000" stroke-width="2"></path>
        <polyline id="Path-13" stroke="#000000" stroke-width="2" points="10.125 81.875 11.625 23.375 40.875 23.375 67.5 82.625"></polyline>
        <polyline id="Path-14" stroke="#000000" stroke-width="2" points="59.25 64.25 84.3781777 64.25 91.375 82.875"></polyline>
        <polyline id="Path-15" stroke="#000000" stroke-width="2" points="51.75 46.625 76.503024 46.625 82.875 64.25"></polyline>
        <polyline id="Path-16" stroke="#000000" stroke-width="2" points="70.875 41.375 105.377038 41.375 108 82.625"></polyline>
        <path d="M79.875,55 L106,55" id="Path-17" stroke="#000000" stroke-width="2"></path>
        <path d="M86.5,68 L106.515618,68" id="Path-18" stroke="#000000" stroke-width="2"></path>
        <path d="M32.5,52.75 L41,52.75 L41,46.9959177 C41,44.6470922 39.0998128,42.75 36.75,42.75 C34.4063045,42.75 32.5,44.6533448 32.5,46.9959177 L32.5,52.75 Z" id="Rectangle-7" stroke="#000000" stroke-width="2"></path>
        <path d="M18.25,52.75 L26.75,52.75 L26.75,46.9959177 C26.75,44.6470922 24.8498128,42.75 22.5,42.75 C20.1563045,42.75 18.25,44.6533448 18.25,46.9959177 L18.25,52.75 Z" id="Rectangle-7" stroke="#000000" stroke-width="2"></path>
        <path d="M25.75,37.75 L34.25,37.75 L34.25,31.9959177 C34.25,29.6470922 32.3498128,27.75 30,27.75 C27.6563045,27.75 25.75,29.6533448 25.75,31.9959177 L25.75,37.75 Z" id="Rectangle-7" stroke="#000000" stroke-width="2"></path>
        <path d="M11.5,37.75 L20,37.75 L20,31.9959177 C20,29.6470922 18.0998128,27.75 15.75,27.75 C13.4063045,27.75 11.5,29.6533448 11.5,31.9959177 L11.5,37.75 Z" id="Rectangle-7" stroke="#000000" stroke-width="2"></path>
        <path d="M25,67.75 L33.5,67.75 L33.5,61.9959177 C33.5,59.6470922 31.5998128,57.75 29.25,57.75 C26.9063045,57.75 25,59.6533448 25,61.9959177 L25,67.75 Z" id="Rectangle-7" stroke="#000000" stroke-width="2"></path>
        <path d="M10.75,67.75 L19.25,67.75 L19.25,61.9959177 C19.25,59.6470922 17.3498128,57.75 15,57.75 C12.6563045,57.75 10.75,59.6533448 10.75,61.9959177 L10.75,67.75 Z" id="Rectangle-7" stroke="#000000" stroke-width="2"></path>
        <path d="M40,67.75 L48.5,67.75 L48.5,61.9959177 C48.5,59.6470922 46.5998128,57.75 44.25,57.75 C41.9063045,57.75 40,59.6533448 40,61.9959177 L40,67.75 Z" id="Rectangle-7" stroke="#000000" stroke-width="2"></path>
        <path d="M32.5,82.75 L41,82.75 L41,76.9959177 C41,74.6470922 39.0998128,72.75 36.75,72.75 C34.4063045,72.75 32.5,74.6533448 32.5,76.9959177 L32.5,82.75 Z" id="Rectangle-7" stroke="#000000" stroke-width="2"></path>
        <path d="M17.5,82.75 L26,82.75 L26,76.9959177 C26,74.6470922 24.0998128,72.75 21.75,72.75 C19.4063045,72.75 17.5,74.6533448 17.5,76.9959177 L17.5,82.75 Z" id="Rectangle-7" stroke="#000000" stroke-width="2"></path>
        <path d="M47.5,82.75 L56,82.75 L56,76.9959177 C56,74.6470922 54.0998128,72.75 51.75,72.75 C49.4063045,72.75 47.5,74.6533448 47.5,76.9959177 L47.5,82.75 Z" id="Rectangle-7" stroke="#000000" stroke-width="2"></path>
        <path d="M71.5,82.75 L80,82.75 L80,73.9962721 C80,71.6481005 78.0992779,69.75 75.75,69.75 C73.4063196,69.75 71.5,71.6534884 71.5,73.9962721 L71.5,82.75 Z" id="Rectangle-7" stroke="#000000" stroke-width="2"></path>
        <path d="M63.25,64 L71.75,64 L71.75,55.2462721 C71.75,52.8981005 69.8492779,51 67.5,51 C65.1563196,51 63.25,52.9034884 63.25,55.2462721 L63.25,64 Z" id="Rectangle-7" stroke="#000000" stroke-width="2"></path>
        <path d="M88.75,55 L97.25,55 L97.25,49.2459177 C97.25,46.8970922 95.3498128,45 93,45 C90.6563045,45 88.75,46.9033448 88.75,49.2459177 L88.75,55 Z" id="Rectangle-7" stroke="#000000" stroke-width="2"></path>
        <path d="M91.75,67.75 L100.25,67.75 L100.25,61.9959177 C100.25,59.6470922 98.3498128,57.75 96,57.75 C93.6563045,57.75 91.75,59.6533448 91.75,61.9959177 L91.75,67.75 Z" id="Rectangle-7" stroke="#000000" stroke-width="2"></path>
        <path d="M94.75,82.75 L103.25,82.75 L103.25,76.9959177 C103.25,74.6470922 101.349813,72.75 99,72.75 C96.6563045,72.75 94.75,74.6533448 94.75,76.9959177 L94.75,82.75 Z" id="Rectangle-7" stroke="#000000" stroke-width="2"></path>
    </g>
</svg>