<svg width="120px" height="87px" viewBox="0 0 120 87" version="1.1" xmlns="http://www.w3.org/2000/svg" xmlns:xlink="http://www.w3.org/1999/xlink">
    <g stroke="none" stroke-width="1" fill="none" fill-rule="evenodd">
        <circle id="Mask" fill="#E5F9F7" cx="60" cy="40" r="40"></circle>
        <circle fill="#FEFBDC" cx="103.5" cy="21.25" r="11.25"></circle>
        <circle stroke="#000000" stroke-width="2" cx="103.5" cy="21.25" r="10.25"></circle>
        <path d="M0,70.75 L120,70.75" id="Path-12" stroke="#000000" stroke-width="2"></path>
        <path d="M0,78.25 L120,78.25" id="Path-12" stroke="#000000" stroke-width="2"></path>
        <path d="M0,85.75 L120,85.75" id="Path-12" stroke="#000000" stroke-width="2"></path>
        <polyline id="Path-42" stroke="#000000" stroke-width="2" points="12.75 70.75 14.625 64.75 19.8883758 64.75 22.125 55.75 27.75 55.75 30 47.125 35.3033009 47.125 37.125 38.875 43.2896583 38.875 45.375 29.125 48.7707694 29.125 49.5 26.5 54.375 26.5 54.375 13.75"></polyline>
        <polyline id="Path-42" stroke="#000000" stroke-width="2" transform="translate(89.062500, 42.250000) scale(-1, 1) translate(-89.062500, -42.250000) " points="68.25 70.75 70.125 64.75 75.3883758 64.75 77.625 55.75 83.25 55.75 85.5 47.125 90.8033009 47.125 92.625 38.875 98.7896583 38.875 100.875 29.125 104.270769 29.125 105 26.5 109.875 26.5 109.875 13.75"></polyline>
        <path d="M53.25,13.75 L69.75,13.75" id="Path-43" stroke="#000000" stroke-width="2"></path>
        <path d="M54.375,19.75 L68.25,19.75" id="Path-44" stroke="#000000" stroke-width="2"></path>
        <path d="M54,26.5 L68.25,26.5" id="Path-45" stroke="#000000" stroke-width="2"></path>
        <path d="M20.625,62.5 L102.37586,62.5" id="Path-46" stroke="#000000" stroke-width="2"></path>
        <path d="M28.125,53.5 L94.125,53.5" id="Path-46" stroke="#000000" stroke-width="2"></path>
        <path d="M35.625,44.5 L86.625,44.5" id="Path-46" stroke="#000000" stroke-width="2"></path>
        <path d="M43.875,35.5 L78.375,35.5" id="Path-46" stroke="#000000" stroke-width="2"></path>
        <path d="M54.375,26.5 L51,70.75" id="Path-47" stroke="#000000" stroke-width="2"></path>
        <path d="M71.625,26.5 L68.25,70.75" id="Path-47" stroke="#000000" stroke-width="2" transform="translate(69.937500, 48.625000) scale(-1, 1) translate(-69.937500, -48.625000) "></path>
        <path d="M54.375,31 L68.625,31" id="Path-48" stroke="#000000" stroke-width="2"></path>
        <path d="M53.625,40.75 L69.375,40.75" id="Path-48" stroke="#000000" stroke-width="2"></path>
        <path d="M52.875,49 L70.125,49" id="Path-48" stroke="#000000" stroke-width="2"></path>
        <path d="M52.125,58 L70.875,58" id="Path-48" stroke="#000000" stroke-width="2"></path>
        <path d="M51.375,67 L71.625,67" id="Path-48" stroke="#000000" stroke-width="2"></path>
        <path d="M59.25,24.25 C59.25,23.2144661 60.0822465,22.375 61.125,22.375 L61.125,22.375 C62.1605339,22.375 63,23.2072465 63,24.25 L63,26.125 L59.25,26.125 L59.25,24.25 Z" id="Rectangle-7" stroke="#000000" stroke-width="2"></path>
    </g>
</svg>