<?xml version="1.0" encoding="utf-8"?>
<!-- Generator: Adobe Illustrator 16.0.4, SVG Export Plug-In . SVG Version: 6.00 Build 0)  -->
<!DOCTYPE svg PUBLIC "-//W3C//DTD SVG 1.1//EN" "http://www.w3.org/Graphics/SVG/1.1/DTD/svg11.dtd">
<svg version="1.1" id="Warstwa_1" xmlns="http://www.w3.org/2000/svg" xmlns:xlink="http://www.w3.org/1999/xlink" x="0px" y="0px"
	 width="89px" height="110px" viewBox="0 0 89 110" enable-background="new 0 0 89 110" xml:space="preserve">
<g>
	<circle id="Mask" fill="#E5F9F7" cx="44.5" cy="63" r="40"/>
	<circle fill="#FEFBDC" cx="77.301" cy="30.019" r="11.043"/>
	<circle fill="none" stroke="#000000" stroke-width="2" cx="77.301" cy="30.019" r="10.043"/>
	<path id="Path-12" fill="none" stroke="#000000" stroke-width="2" d="M0,94.54h89"/>
	<path id="Path-12_1_" fill="none" stroke="#000000" stroke-width="2" d="M0,101.902h89"/>
	<path id="Path-12_2_" fill="none" stroke="#000000" stroke-width="2" d="M0,109h89"/>
	<path id="Path-25" fill="none" stroke="#000000" stroke-width="2" d="M33.129,94.54V30.491"/>
	<path id="Path-25_1_" fill="none" stroke="#000000" stroke-width="2" d="M55.215,94.54V30.491"/>
	<polyline id="Path-26" fill="none" stroke="#000000" stroke-width="2" points="40.491,35.491 40.491,14.877 47.853,14.877 
		47.853,35.504 	"/>
	<path id="Path-27" fill="none" stroke="#000000" stroke-width="2" d="M33.129,34.908h22.086"/>
	<path id="Path-28" fill="none" stroke="#000000" stroke-width="2" d="M44.172,0v14.724"/>
	<path id="Path-29" fill="none" stroke="#000000" stroke-width="2" d="M15.46,94.54V80"/>
	<path id="Path-30" fill="none" stroke="#000000" stroke-width="2" d="M15.46,81H33"/>
	<path id="Path-29_1_" fill="none" stroke="#000000" stroke-width="2" d="M72.46,94.54V80"/>
	<path id="Path-30_1_" fill="none" stroke="#000000" stroke-width="2" d="M55.46,81H73"/>
	<polygon id="Path-31" fill="none" stroke="#000000" stroke-width="2" points="37.491,46.534 37.491,39.534 41.491,39.534 
		41.491,46.534 	"/>
	<polygon id="Path-31_1_" fill="none" stroke="#000000" stroke-width="2" points="46.49,46.534 46.49,39.534 50.49,39.534 
		50.49,46.534 	"/>
	<polygon id="Path-31_2_" fill="none" stroke="#000000" stroke-width="2" points="37.491,58.533 37.491,51.534 41.491,51.534 
		41.491,58.533 	"/>
	<polygon id="Path-31_3_" fill="none" stroke="#000000" stroke-width="2" points="46.49,58.533 46.49,51.534 50.49,51.534 
		50.49,58.533 	"/>
	<polygon id="Path-31_4_" fill="none" stroke="#000000" stroke-width="2" points="37.491,70.533 37.491,63.533 41.491,63.533 
		41.491,70.533 	"/>
	<polygon id="Path-31_5_" fill="none" stroke="#000000" stroke-width="2" points="46.49,70.533 46.49,63.533 50.49,63.533 
		50.49,70.533 	"/>
	<polygon id="Path-31_6_" fill="none" stroke="#000000" stroke-width="2" points="37.491,82.533 37.491,75.533 41.491,75.533 
		41.491,82.533 	"/>
	<polygon id="Path-31_7_" fill="none" stroke="#000000" stroke-width="2" points="62.49,94.533 62.49,87.533 66.49,87.533 
		66.49,94.533 	"/>
	<polygon id="Path-31_8_" fill="none" stroke="#000000" stroke-width="2" points="22.491,94.533 22.491,87.533 26.491,87.533 
		26.491,94.533 	"/>
	<polygon id="Path-31_9_" fill="none" stroke="#000000" stroke-width="2" points="46.49,82.533 46.49,75.533 50.49,75.533 
		50.49,82.533 	"/>
	<polygon id="Path-31_10_" fill="none" stroke="#000000" stroke-width="2" points="37.491,94.533 37.491,87.533 41.491,87.533 
		41.491,94.533 	"/>
	<polygon id="Path-31_11_" fill="none" stroke="#000000" stroke-width="2" points="46.49,94.533 46.49,87.533 50.49,87.533 
		50.49,94.533 	"/>
</g>
</svg>
