
<svg width="102px" height="122px" viewBox="0 0 102 122" version="1.1" xmlns="http://www.w3.org/2000/svg" xmlns:xlink="http://www.w3.org/1999/xlink">
    <g stroke="none" stroke-width="1" fill="none" fill-rule="evenodd">
        <circle id="Mask" fill="#E5F9F7" cx="50.5" cy="63" r="40"></circle>
        <circle fill="#FEFBDC" cx="11.9371728" cy="59.6858639" r="9.42408377"></circle>
        <circle stroke="#000000" stroke-width="2" cx="11.9371728" cy="59.6858639" r="8.42408377"></circle>
        <path d="M31.7853403,107.052356 L38.5811518,107.052356 L38.5811518,102.394486 C38.5811518,100.516581 37.062097,99 35.1832461,99 C33.3095224,99 31.7853403,100.521816 31.7853403,102.394486 L31.7853403,107.052356 Z" id="Rectangle-7" stroke="#000000" stroke-width="2"></path>
        <path d="M45.6073298,106.565445 L52.4031414,106.565445 L52.4031414,99.3947829 C52.4031414,97.5174162 50.8836294,96 49.0052356,96 C47.131527,96 45.6073298,97.5219335 45.6073298,99.3947829 L45.6073298,106.565445 Z" id="Rectangle-7" stroke="#000000" stroke-width="2"></path>
        <path d="M58.1727749,107.052356 L64.9685864,107.052356 L64.9685864,102.394486 C64.9685864,100.516581 63.4495316,99 61.5706806,99 C59.6969569,99 58.1727749,100.521816 58.1727749,102.394486 L58.1727749,107.052356 Z" id="Rectangle-7" stroke="#000000" stroke-width="2"></path>
        <polyline id="Path-19" stroke="#000000" stroke-width="2" points="25.1308901 106.549738 24.1884817 81.0471204 29.5287958 26.3874346 34.8691099 65.3403141 42.0942408 11.3089005 46.4921466 59.6858639 50.2617801 59.3717277 55.6020942 11.9371728 61.8848168 65.9685864 67.539267 27.9581152 72.8795812 80.4188482 71.6230366 106.863874"></polyline>
        <polyline id="Path-20" stroke="#000000" stroke-width="2" points="25.7591623 68.1675393 48.6910995 58.7434555 71.9371728 67.539267"></polyline>
        <polyline id="Path-21" stroke="#000000" stroke-width="2" points="29.5287958 106.806283 29.5287958 96.1256545 35.1832461 66.9109948 40.2094241 93.9267016 48.3769634 55.9162304 56.8586387 93.2984293 61.8848168 67.539267 68.4816754 93.6125654 67.539267 106.17801"></polyline>
        <path d="M24.5026178,81.6753927 L32.6701571,77.9057592" id="Path-22" stroke="#000000" stroke-width="2"></path>
        <path d="M37.6963351,76.0209424 L43.9790576,73.5078534" id="Path-23" stroke="#000000" stroke-width="2"></path>
        <path d="M64.0837696,80.4188482 L72.2513089,76.6492147" id="Path-22" stroke="#000000" stroke-width="2" transform="translate(68.167539, 78.534031) scale(-1, 1) translate(-68.167539, -78.534031) "></path>
        <path d="M52.8199972,75.3926702 L59.6858639,72.6463235" id="Path-23" stroke="#000000" stroke-width="2" transform="translate(56.252931, 74.019497) scale(-1, 1) translate(-56.252931, -74.019497) "></path>
        <polyline id="Path-24" stroke="#000000" stroke-width="2" points="29.5287958 96.7539267 35.1832461 84.8167539 40.2094241 96.7539267 49.0052356 84.1884817 57.1727749 96.1256545 62.1989529 84.1884817 68.4816754 94.8691099"></polyline>
        <circle id="Oval" stroke="#000000" stroke-width="2" cx="29.5287958" cy="18.2198953" r="2.14136126"></circle>
        <circle id="Oval" stroke="#000000" stroke-width="2" cx="42.0942408" cy="3.14136126" r="2.14136126"></circle>
        <circle id="Oval" stroke="#000000" stroke-width="2" cx="55.2879581" cy="3.14136126" r="2.14136126"></circle>
        <circle id="Oval" stroke="#000000" stroke-width="2" cx="67.8534031" cy="20.104712" r="2.14136126"></circle>
        <path d="M0,107 L100.52356,107" id="Path-12" stroke="#000000" stroke-width="2"></path>
        <path d="M0,114 L100.52356,114" id="Path-12" stroke="#000000" stroke-width="2"></path>
        <path d="M0,121 L100.52356,121" id="Path-12" stroke="#000000" stroke-width="2"></path>
    </g>
</svg>